<?xml version="1.0" encoding="UTF-8"?>
<svg id="_Слой_1" data-name="Слой 1" xmlns="http://www.w3.org/2000/svg" viewBox="0 0 88.55 88.58">
  <defs>
    <style>
      .cls-1 {
        fill: #c0bcfa;
      }
    </style>
  </defs>
  <path class="cls-1" d="M43.2,.38l-13.9,13.9c-1.2,1.2-1.9,2.8-1.9,4.5s.7,3.3,1.9,4.5l13.9,14c.3,.3,.7,.4,1.1,.4s.8-.2,1.1-.4l13.9-13.9c2.5-2.5,2.5-6.6,0-9.1L45.4,.38c-.6-.5-1.6-.5-2.2,0Zm-5.4,43.9c0-.4-.2-.8-.4-1.1l-14-13.9c-2.5-2.5-6.6-2.5-9.1,0L.4,43.18c-.3,.3-.4,.7-.4,1.1s.2,.8,.4,1.1l13.9,13.9c1.2,1.2,2.8,1.9,4.5,1.9s3.3-.7,4.5-1.9l14-13.9c.3-.3,.5-.7,.5-1.1Zm36.5-15c-2.5-2.5-6.6-2.5-9.1,0l-13.9,13.9c-.3,.3-.4,.7-.4,1.1s.2,.8,.4,1.1l13.9,13.9c1.2,1.2,2.8,1.9,4.5,1.9s3.3-.7,4.5-1.9l13.9-13.9c.6-.6,.6-1.5,0-2.1l-13.8-14Zm-28.9,22c-.6-.6-1.5-.6-2.1,0l-14,13.9c-2.5,2.5-2.5,6.6,0,9.1l13.9,13.9c.3,.3,.7,.4,1.1,.4s.8-.1,1.1-.4l13.9-13.9c2.5-2.5,2.5-6.6,0-9.1l-13.9-13.9Z"/>
</svg>